<svg width="84" height="84" viewBox="0 0 84 84" fill="none" xmlns="http://www.w3.org/2000/svg">
<path d="M43.9515 3.3623C43.9515 3.3623 41.8253 4.44741 39.7011 6.04538C38.6392 6.84437 37.5642 7.77132 36.7144 8.83887C35.8645 9.90627 35.1719 11.1738 35.2772 12.656C35.3943 14.3031 36.5109 15.5298 37.702 16.2653C38.893 17.0007 40.2453 17.4456 41.519 17.8845C42.7927 18.3233 43.9881 18.7561 44.7464 19.2245C45.5049 19.6928 45.7393 19.9961 45.7772 20.531C45.7816 20.5917 45.7086 20.9158 45.3485 21.3682C44.9884 21.8205 44.4091 22.3411 43.803 22.7971C42.5909 23.7088 41.3265 24.3623 41.3265 24.3623L42.6735 26.9899C42.6735 26.9899 44.1215 26.2526 45.5784 25.1567C46.3068 24.6087 47.051 23.971 47.6588 23.2076C48.2667 22.4439 48.8061 21.4948 48.7228 20.3213C48.6056 18.6741 47.489 17.4474 46.2979 16.7119C45.107 15.9764 43.7546 15.5316 42.481 15.0928C41.2072 14.6539 40.0119 14.2211 39.2536 13.7527C38.4951 13.2843 38.2607 12.9811 38.2228 12.4463C38.1965 12.0768 38.4224 11.4343 39.0244 10.6782C39.6265 9.92185 40.5367 9.11155 41.4765 8.4046C43.3556 6.99088 45.2985 5.98993 45.2985 5.98993L43.9515 3.3623ZM22.9515 11.2373C22.9515 11.2373 20.8253 12.3224 18.7011 13.9204C17.6392 14.7194 16.5642 15.6463 15.7144 16.7139C14.8645 17.7813 14.1719 19.0488 14.2772 20.531C14.3943 22.1781 15.5109 23.4048 16.702 24.1403C17.893 24.8757 19.2453 25.3206 20.519 25.7595C21.7927 26.1983 22.9881 26.6311 23.7464 27.0995C24.5049 27.5678 24.7393 27.8711 24.7772 28.406C24.7816 28.4667 24.7086 28.7908 24.3485 29.2432C23.9884 29.6955 23.4091 30.2161 22.803 30.6721C21.5909 31.5838 20.3265 32.2373 20.3265 32.2373L21.6735 34.8649C21.6735 34.8649 23.1215 34.1276 24.5784 33.0317C25.3068 32.4837 26.051 31.846 26.6588 31.0825C27.2667 30.3189 27.8061 29.3697 27.7228 28.1963C27.6056 26.5491 26.489 25.3224 25.2979 24.5869C24.107 23.8514 22.7546 23.4066 21.481 22.9678C20.2072 22.5289 19.0119 22.0961 18.2536 21.6277C17.4951 21.1593 17.2607 20.8561 17.2228 20.3213C17.1965 19.9518 17.4224 19.3093 18.0244 18.5532C18.6265 17.7969 19.5367 16.9865 20.4765 16.2796C22.3556 14.8659 24.2985 13.8649 24.2985 13.8649L22.9515 11.2373ZM64.9515 11.2373C64.9515 11.2373 62.8253 12.3224 60.7011 13.9204C59.6392 14.7194 58.5642 15.6463 57.7144 16.7139C56.8645 17.7813 56.1719 19.0488 56.2772 20.531C56.3943 22.1781 57.5109 23.4048 58.702 24.1403C59.893 24.8757 61.2453 25.3206 62.519 25.7595C63.7927 26.1983 64.9881 26.6311 65.7464 27.0995C66.5049 27.5678 66.7393 27.8711 66.7772 28.406C66.7816 28.4667 66.7086 28.7908 66.3485 29.2432C65.9884 29.6955 65.4091 30.2161 64.803 30.6721C63.5909 31.5838 62.3265 32.2373 62.3265 32.2373L63.6735 34.8649C63.6735 34.8649 65.1215 34.1276 66.5784 33.0317C67.3068 32.4837 68.051 31.846 68.6588 31.0825C69.2667 30.3189 69.8061 29.3697 69.7228 28.1963C69.6056 26.5491 68.489 25.3224 67.2979 24.5869C66.107 23.8514 64.7546 23.4066 63.481 22.9678C62.2072 22.5289 61.0119 22.0961 60.2536 21.6277C59.4951 21.1593 59.2607 20.8561 59.2228 20.3213C59.1965 19.9518 59.4224 19.3093 60.0244 18.5532C60.6265 17.7969 61.5367 16.9865 62.4765 16.2796C64.3556 14.8659 66.2985 13.8649 66.2985 13.8649L64.9515 11.2373ZM42 30.7617C39.8672 30.7617 38.4247 31.732 37.3222 33.3857C36.8658 34.0704 36.4975 34.8787 36.2206 35.7589C38.0777 35.4953 40.0055 35.3561 42 35.3561C43.9945 35.3561 45.9221 35.4953 47.7794 35.7589C47.5025 34.8787 47.1342 34.0704 46.6777 33.3857C45.5752 31.732 44.1328 30.7617 42 30.7617ZM42 38.3086C22.4065 38.3086 10.2125 52.4244 9.42702 66.8561H74.573C73.7873 52.4244 61.5933 38.3084 42 38.3084V38.3086ZM3.66891 67.6166L1.58105 69.7044C4.55387 72.6774 7.87498 72.7617 10.5 72.7617H73.5C76.125 72.7617 79.4459 72.6774 82.4189 69.7044L80.3311 67.6166C78.0539 69.8936 76.125 69.8093 73.5 69.8093H10.5C7.87498 69.8093 5.94594 69.8936 3.66891 67.6166ZM18.5085 75.7149L21.7901 80.6374H62.2099L65.4914 75.7149H18.5085Z" fill="#A8A8A8"/>
</svg>
