<svg width="84" height="84" viewBox="0 0 84 84" fill="none" xmlns="http://www.w3.org/2000/svg">
<path d="M17.5003 77.0001C12.8803 77.0001 11.0253 68.7401 10.6403 65.4501C10.2258 62.256 10.6107 59.0089 11.7603 56.0001C12.2656 54.5684 13.1347 53.2928 14.2822 52.2987C15.4298 51.3046 16.8162 50.6262 18.3053 50.3301C22.4003 49.6301 25.3053 52.0801 29.0153 52.9201C29.7122 53.1438 30.4552 53.183 31.1718 53.034C31.8884 52.885 32.5541 52.5528 33.1041 52.0698C33.654 51.5869 34.0694 50.9696 34.3098 50.2783C34.5501 49.5869 34.6071 48.8451 34.4753 48.1251C32.9353 42.1051 21.9803 42.0001 17.5003 42.0001C17.5003 35.4901 24.6403 34.6501 29.7503 35.1401C32.7818 35.4329 35.7668 36.091 38.6403 37.1001C40.3903 37.6951 42.4203 39.2001 44.3453 39.0601C47.2503 38.8151 47.8453 35.8051 46.5853 33.6001C43.5403 28.4201 34.8953 28.0001 29.7503 28.0001C29.7503 21.0001 35.8053 19.6701 41.6153 20.7201C44.6153 21.3101 47.5389 22.2377 50.3303 23.4851C52.1153 24.2551 54.2503 25.7251 56.2103 25.0601C61.2503 23.5201 56.0003 18.1301 53.7603 16.8351C52.1882 15.9676 50.5202 15.2863 48.7903 14.8051C46.9003 14.2451 44.5903 14.4551 46.3053 12.2501C48.987 9.88418 52.3142 8.37295 55.8603 7.91013C62.4753 6.37013 71.6103 6.09013 73.2203 14.4201C73.7568 18.8181 72.7015 23.2628 70.2453 26.9501C63.7249 38.1034 55.6525 48.2734 46.2703 57.1551C41.3009 62.2493 35.9156 66.9204 30.1703 71.1201C26.6703 73.6401 22.0503 77.0001 17.5003 77.0001Z" fill="#A8A8A8"/>
</svg>
