<svg width="32" height="32" viewBox="0 0 32 32" fill="none" xmlns="http://www.w3.org/2000/svg">
<path d="M26.2323 6.11792H5.52668C4.10317 6.11792 2.95142 7.28261 2.95142 8.70612L2.93848 24.2353C2.93848 25.6588 4.10317 26.8235 5.52668 26.8235H26.2323C27.6558 26.8235 28.8205 25.6588 28.8205 24.2353V8.70612C28.8205 7.28261 27.6558 6.11792 26.2323 6.11792ZM25.7146 11.6178L16.5653 17.3378C16.1512 17.5966 15.6077 17.5966 15.1936 17.3378L6.04432 11.6178C5.91455 11.545 5.80092 11.4466 5.71029 11.3286C5.61967 11.2105 5.55393 11.0753 5.51707 10.9312C5.4802 10.787 5.47297 10.6368 5.49582 10.4898C5.51867 10.3427 5.57111 10.2019 5.64998 10.0757C5.72885 9.94948 5.8325 9.8406 5.95467 9.75563C6.07683 9.67066 6.21497 9.61136 6.36072 9.58132C6.50646 9.55128 6.65679 9.55112 6.8026 9.58086C6.94841 9.6106 7.08667 9.66962 7.20901 9.75434L15.8795 15.1766L24.5499 9.75434C24.6723 9.66962 24.8105 9.6106 24.9563 9.58086C25.1022 9.55112 25.2525 9.55128 25.3982 9.58132C25.544 9.61136 25.6821 9.67066 25.8043 9.75563C25.9264 9.8406 26.0301 9.94948 26.109 10.0757C26.1878 10.2019 26.2403 10.3427 26.2631 10.4898C26.286 10.6368 26.2787 10.787 26.2419 10.9312C26.205 11.0753 26.1393 11.2105 26.0487 11.3286C25.958 11.4466 25.8444 11.545 25.7146 11.6178Z" fill="#DB471B"/>
</svg>
