<svg width="32" height="32" viewBox="0 0 32 32" fill="none" xmlns="http://www.w3.org/2000/svg">
<path d="M15.5294 14.8823C14.6714 14.8823 13.8485 14.5415 13.2417 13.9347C12.635 13.328 12.2942 12.5051 12.2942 11.6471C12.2942 10.789 12.635 9.96614 13.2417 9.35941C13.8485 8.75268 14.6714 8.41183 15.5294 8.41183C16.3874 8.41183 17.2103 8.75268 17.8171 9.35941C18.4238 9.96614 18.7647 10.789 18.7647 11.6471C18.7647 12.0719 18.681 12.4926 18.5184 12.8852C18.3558 13.2777 18.1175 13.6343 17.8171 13.9347C17.5166 14.2352 17.16 14.4735 16.7675 14.6361C16.375 14.7986 15.9543 14.8823 15.5294 14.8823ZM15.5294 2.58838C13.1269 2.58838 10.8228 3.54277 9.12393 5.24161C7.4251 6.94045 6.4707 9.24456 6.4707 11.6471C6.4707 18.4411 15.5294 28.4704 15.5294 28.4704C15.5294 28.4704 24.5881 18.4411 24.5881 11.6471C24.5881 9.24456 23.6337 6.94045 21.9349 5.24161C20.236 3.54277 17.9319 2.58838 15.5294 2.58838Z" fill="#DB471B"/>
</svg>
