<svg width="35" height="35" viewBox="0 0 35 35" fill="none" xmlns="http://www.w3.org/2000/svg">
<g clip-path="url(#clip0_160_8983)">
<path d="M12.2908 2.43555C5.50958 2.43555 1.81417 8.48617 1.81417 12.641C1.81417 15.9864 5.0225 17.452 8.01208 17.452L8.00333 17.4433C14.1925 17.4433 18.48 11.8228 18.48 7.23784C18.48 3.89826 15.3081 2.43555 12.2908 2.43555ZM28.8108 2.43555C22.0296 2.43555 18.3342 8.48617 18.3342 12.641C18.3342 15.9864 21.5425 17.452 24.5321 17.452L24.5233 17.4433C30.714 17.4418 35 11.8228 35 7.23784C35 3.89826 31.8208 2.43555 28.8108 2.43555ZM20.6675 21.1751L24.2185 23.8497C21.054 26.8685 15.2877 28.9903 10.5788 28.4726C8.39647 28.2254 6.31243 27.4292 4.52116 26.1585C2.7299 24.8877 1.28984 23.1838 0.335417 21.2058H0C0.588745 24.2516 2.17269 27.0156 4.50299 29.0635C6.83329 31.1113 9.77789 32.327 12.8742 32.5195C18.4363 32.8695 23.5535 31.1997 27.3802 27.9549L27.3744 27.9651L28.9494 32.3226L31.2171 21.2058L20.6675 21.1751Z" fill="#DB471B"/>
</g>
<defs>
<clipPath id="clip0_160_8983">
<rect width="35" height="35" fill="white"/>
</clipPath>
</defs>
</svg>
