<svg width="40" height="40" viewBox="0 0 40 40" fill="none" xmlns="http://www.w3.org/2000/svg">
<g clip-path="url(#clip0_160_8989)">
<path d="M21.713 3.33506C22.9292 3.33039 24.1454 3.34261 25.3613 3.37173L25.6847 3.38339C26.058 3.39673 26.4263 3.41339 26.8713 3.43339C28.6447 3.51673 29.8547 3.79673 30.9163 4.20839C32.0163 4.63173 32.943 5.20506 33.8697 6.13172C34.717 6.9644 35.3727 7.97164 35.7913 9.08339C36.203 10.1451 36.483 11.3567 36.5663 13.1301C36.5863 13.5734 36.603 13.9434 36.6163 14.3167L36.6263 14.6401C36.6559 15.8554 36.6687 17.0711 36.6647 18.2867L36.6663 19.5301V21.7134C36.6704 22.9296 36.6577 24.1458 36.628 25.3617L36.618 25.6851C36.6047 26.0584 36.588 26.4267 36.568 26.8717C36.4847 28.6451 36.2013 29.8551 35.7913 30.9167C35.3741 32.0297 34.7182 33.0377 33.8697 33.8701C33.0363 34.7173 32.0285 35.373 30.9163 35.7917C29.8547 36.2034 28.6447 36.4834 26.8713 36.5667C26.4263 36.5867 26.058 36.6034 25.6847 36.6167L25.3613 36.6267C24.1455 36.6563 22.9292 36.6691 21.713 36.6651L20.4697 36.6667H18.288C17.0718 36.6708 15.8555 36.6581 14.6397 36.6284L14.3163 36.6184C13.9207 36.604 13.5251 36.5874 13.1297 36.5684C11.3563 36.4851 10.1463 36.2017 9.08299 35.7917C7.9708 35.374 6.96339 34.7181 6.13133 33.8701C5.28307 33.0372 4.6267 32.0293 4.20799 30.9167C3.79633 29.8551 3.51633 28.6451 3.43299 26.8717C3.41443 26.4762 3.39776 26.0807 3.38299 25.6851L3.37466 25.3617C3.34393 24.1459 3.33004 22.9296 3.33299 21.7134V18.2867C3.32834 17.0711 3.34056 15.8554 3.36966 14.6401L3.38133 14.3167C3.39466 13.9434 3.41133 13.5734 3.43133 13.1301C3.51466 11.3551 3.79466 10.1467 4.20633 9.08339C4.62528 7.97109 5.28293 6.96413 6.13299 6.13339C6.96448 5.28465 7.97126 4.62768 9.08299 4.20839C10.1463 3.79673 11.3547 3.51673 13.1297 3.43339L14.3163 3.38339L14.6397 3.37506C15.855 3.34435 17.0706 3.33046 18.2863 3.33339L21.713 3.33506ZM19.9997 11.6684C18.8955 11.6528 17.7993 11.8568 16.7746 12.2685C15.75 12.6802 14.8174 13.2915 14.0311 14.0668C13.2447 14.8421 12.6203 15.766 12.1941 16.7847C11.768 17.8034 11.5485 18.8966 11.5485 20.0009C11.5485 21.1052 11.768 22.1984 12.1941 23.2171C12.6203 24.2358 13.2447 25.1597 14.0311 25.935C14.8174 26.7103 15.75 27.3215 16.7746 27.7333C17.7993 28.145 18.8955 28.349 19.9997 28.3334C22.2098 28.3334 24.3294 27.4554 25.8922 25.8926C27.455 24.3298 28.333 22.2102 28.333 20.0001C28.333 17.7899 27.455 15.6703 25.8922 14.1075C24.3294 12.5447 22.2098 11.6684 19.9997 11.6684ZM19.9997 15.0017C20.6638 14.9895 21.3238 15.1097 21.941 15.3554C22.5582 15.6011 23.1202 15.9673 23.5943 16.4326C24.0684 16.898 24.445 17.4531 24.7021 18.0656C24.9592 18.6781 25.0917 19.3358 25.0918 20C25.0919 20.6643 24.9596 21.322 24.7027 21.9346C24.4458 22.5472 24.0694 23.1025 23.5955 23.568C23.1216 24.0334 22.5596 24.3998 21.9425 24.6457C21.3254 24.8916 20.6655 25.0121 20.0013 25.0001C18.6752 25.0001 17.4035 24.4733 16.4658 23.5356C15.5281 22.5979 15.0013 21.3261 15.0013 20.0001C15.0013 18.674 15.5281 17.4022 16.4658 16.4645C17.4035 15.5268 18.6752 15.0001 20.0013 15.0001L19.9997 15.0017ZM28.7497 9.16839C28.212 9.18991 27.7035 9.41864 27.3307 9.80668C26.9579 10.1947 26.7496 10.7119 26.7496 11.2501C26.7496 11.7882 26.9579 12.3054 27.3307 12.6934C27.7035 13.0815 28.212 13.3102 28.7497 13.3317C29.3022 13.3317 29.8321 13.1122 30.2228 12.7215C30.6135 12.3308 30.833 11.8009 30.833 11.2484C30.833 10.6959 30.6135 10.166 30.2228 9.77525C29.8321 9.38455 29.3022 9.16506 28.7497 9.16506V9.16839Z" fill="#DB471B"/>
</g>
<defs>
<clipPath id="clip0_160_8989">
<rect width="40" height="40" fill="white"/>
</clipPath>
</defs>
</svg>
