<svg width="84" height="84" viewBox="0 0 84 84" fill="none" xmlns="http://www.w3.org/2000/svg">
<path d="M8.75 49C8.28587 49 7.84075 49.1844 7.51256 49.5126C7.18437 49.8408 7 50.2859 7 50.75C7 51.2141 7.18437 51.6592 7.51256 51.9874C7.84075 52.3156 8.28587 52.5 8.75 52.5H14C14 56.213 15.475 59.774 18.1005 62.3995C20.726 65.025 24.287 66.5 28 66.5H56C59.713 66.5 63.274 65.025 65.8995 62.3995C68.525 59.774 70 56.213 70 52.5H75.25C75.7141 52.5 76.1592 52.3156 76.4874 51.9874C76.8156 51.6592 77 51.2141 77 50.75C77 50.2859 76.8156 49.8408 76.4874 49.5126C76.1592 49.1844 75.7141 49 75.25 49H8.75Z" fill="#A8A8A8"/>
<path fill-rule="evenodd" clip-rule="evenodd" d="M40.4338 17.5928L42.0001 18.375L43.5663 19.1573L43.5628 19.1625L43.5418 19.2063L43.4543 19.3988C42.9867 20.4429 42.6346 21.5349 42.4043 22.6555C41.9913 24.7188 42.1436 26.544 43.2373 27.6378C45.6436 30.044 45.4913 33.4688 45.0293 35.7805C44.728 37.253 44.2545 38.685 43.6188 40.047L43.5838 40.1223L43.5716 40.145L43.5681 40.1538L43.5663 40.1555L42.0001 39.375L40.4338 38.5928L40.4373 38.5875L40.4583 38.5438L40.5458 38.3513C41.0134 37.3072 41.3655 36.2151 41.5958 35.0945C42.0088 33.0313 41.8566 31.206 40.7628 30.1123C38.3566 27.706 38.5088 24.2813 38.9708 21.9695C39.2722 20.497 39.7456 19.065 40.3813 17.703L40.4163 17.6278L40.4286 17.605L40.4321 17.598L40.4338 17.5928ZM26.5476 21.7718L28.0001 22.7518C29.4508 23.73 29.4526 23.7283 29.4526 23.7283L29.4298 23.7633C29.2762 24.0082 29.1326 24.2592 28.9993 24.5158C28.6685 25.1438 28.4045 25.8048 28.2118 26.488C27.7918 28.049 27.9423 29.281 29.0413 30.093C31.8798 32.1965 31.7293 35.3413 31.1658 37.4255C30.9083 38.3517 30.5534 39.2481 30.1071 40.0995C29.9119 40.4746 29.7 40.8408 29.4718 41.1968L29.4578 41.2178L29.4543 41.2248L29.4526 41.2265C29.4526 41.2265 29.4508 41.23 28.0001 40.25C26.5493 39.27 26.5476 39.2718 26.5476 39.2718L26.5703 39.2385L26.6648 39.088C26.7826 38.8906 26.8947 38.6899 27.0008 38.486C27.2721 37.9645 27.5836 37.2645 27.7883 36.512C28.2083 34.951 28.0578 33.7208 26.9588 32.907C24.1203 30.8035 24.2708 27.6605 24.8343 25.5745C25.1231 24.5035 25.5501 23.562 25.8931 22.9005C26.0884 22.5261 26.3004 22.1606 26.5283 21.805L26.5406 21.784L26.5458 21.7753L26.5476 21.7718ZM56.2976 21.7718L57.7501 22.7518C59.2008 23.73 59.2026 23.7283 59.2026 23.7283L59.1798 23.7633C59.0262 24.0082 58.8826 24.2592 58.7493 24.5158C58.4185 25.1438 58.1545 25.8048 57.9618 26.488C57.5418 28.049 57.6923 29.281 58.7913 30.093C61.6298 32.1965 61.4793 35.3413 60.9158 37.4255C60.6583 38.3517 60.3034 39.2481 59.8571 40.0995C59.6625 40.4746 59.4511 40.8407 59.2236 41.1968L59.2096 41.2178L59.2043 41.2248L59.2026 41.2265C59.2026 41.2265 59.2008 41.23 57.7501 40.25C56.2993 39.27 56.2976 39.2718 56.2976 39.2718L56.3203 39.2385L56.4148 39.088C56.5326 38.8906 56.6447 38.6899 56.7508 38.486C57.0221 37.9645 57.3336 37.2645 57.5383 36.512C57.9583 34.951 57.8078 33.7208 56.7088 32.907C53.8703 30.8035 54.0208 27.6605 54.5843 25.5745C54.8731 24.5035 55.3001 23.562 55.6431 22.9005C55.8379 22.5261 56.0492 22.1606 56.2766 21.805L56.2906 21.784L56.2958 21.7753L56.2993 21.7718H56.2976Z" fill="#A8A8A8"/>
</svg>
