<svg width="32" height="32" viewBox="0 0 32 32" fill="none" xmlns="http://www.w3.org/2000/svg">
<path d="M21.4256 17.5778L20.8368 18.164C20.8368 18.164 19.4353 19.5565 15.6112 15.7544C11.7872 11.9523 13.1887 10.5599 13.1887 10.5599L13.5588 10.1898C14.4737 9.28131 14.5604 7.82156 13.7619 6.75522L12.1314 4.57725C11.1427 3.25727 9.23389 3.08257 8.10156 4.20844L6.06982 6.22723C5.50947 6.78628 5.13418 7.50839 5.17948 8.31073C5.29595 10.3645 6.22511 14.7812 11.4067 19.9343C16.9027 25.398 22.0597 25.6154 24.1678 25.4187C24.8356 25.3566 25.4153 25.0176 25.8825 24.5517L27.7201 22.7244C28.9624 21.4911 28.613 19.3753 27.0239 18.5121L24.5522 17.1676C23.5091 16.6007 22.2409 16.7677 21.4256 17.5778Z" fill="#DB471B"/>
</svg>
