<svg width="38" height="38" viewBox="0 0 38 38" fill="none" xmlns="http://www.w3.org/2000/svg">
<path d="M33.1311 10.07C28.1673 2.37503 18.0023 0.0950272 10.1411 4.86878C2.46983 9.64253 -0.000174522 20.045 4.96358 27.7163L5.36733 28.3338L3.70483 34.5563L9.92733 32.8938L10.5448 33.2975C13.2286 34.7463 16.1498 35.5775 19.0473 35.5775C22.1586 35.5775 25.2698 34.7463 27.9536 33.0838C35.6248 28.0963 37.9048 17.9075 33.1311 10.0225V10.07ZM28.7848 26.0775C27.9536 27.3125 26.9086 28.1438 25.4598 28.3575C24.6286 28.3575 23.5836 28.7613 19.4511 27.1225C15.9361 25.46 13.0148 22.7525 10.9486 19.6413C9.71358 18.1925 9.07233 16.3163 8.88233 14.44C8.88233 12.7775 9.49983 11.3288 10.5448 10.2838C10.9486 9.88003 11.3761 9.66628 11.7798 9.66628H12.8248C13.2286 9.66628 13.6561 9.66628 13.8698 10.4975C14.2736 11.5425 15.3186 14.0363 15.3186 14.25C15.5323 14.4638 15.4373 16.055 14.4873 16.9575C13.9648 17.5513 13.8698 17.575 14.0836 18.0025C14.9148 19.2375 15.9598 20.4963 16.9811 21.5413C18.2161 22.5863 19.4748 23.4175 20.9236 24.035C21.3273 24.2488 21.7548 24.2488 21.9686 23.8213C22.1823 23.4175 23.2036 22.3725 23.6311 21.945C24.0348 21.5413 24.2486 21.5413 24.6761 21.7313L28.0011 23.3938C28.4048 23.6075 28.8323 23.7975 29.0461 24.0113C29.2598 24.6288 29.2598 25.46 28.8323 26.0775H28.7848Z" fill="#DB471B"/>
</svg>
